<?xml version="1.0" encoding="UTF-8" standalone="no"?>
<!-- Created with Inkscape (http://www.inkscape.org/) -->

<svg
   xmlns:dc="http://purl.org/dc/elements/1.1/"
   xmlns:cc="http://creativecommons.org/ns#"
   xmlns:rdf="http://www.w3.org/1999/02/22-rdf-syntax-ns#"
   xmlns:svg="http://www.w3.org/2000/svg"
   xmlns="http://www.w3.org/2000/svg"
   xmlns:sodipodi="http://sodipodi.sourceforge.net/DTD/sodipodi-0.dtd"
   xmlns:inkscape="http://www.inkscape.org/namespaces/inkscape"
   width="367.14001"
   height="367.13998"
   viewBox="0 0 367.14001 367.13998"
   version="1.1"
   id="svg2216"
   inkscape:version="0.92.3 (2405546, 2018-03-11)"
   sodipodi:docname="circle.svg">
  <defs
     id="defs2210" />
  <sodipodi:namedview
     id="base"
     pagecolor="#ffffff"
     bordercolor="#666666"
     borderopacity="1.0"
     inkscape:pageopacity="0.0"
     inkscape:pageshadow="2"
     inkscape:zoom="1.4"
     inkscape:cx="128.40776"
     inkscape:cy="196.06567"
     inkscape:document-units="px"
     inkscape:current-layer="layer1"
     showgrid="false"
     units="px"
     inkscape:window-width="1280"
     inkscape:window-height="737"
     inkscape:window-x="-8"
     inkscape:window-y="-8"
     inkscape:window-maximized="1"
     fit-margin-top="10"
     fit-margin-left="10"
     fit-margin-bottom="10"
     fit-margin-right="10"
     inkscape:showpageshadow="false"
     scale-x="1" />
  <metadata
     id="metadata2213">
    <rdf:RDF>
      <cc:Work
         rdf:about="">
        <dc:format>image/svg+xml</dc:format>
        <dc:type
           rdf:resource="http://purl.org/dc/dcmitype/StillImage" />
        <dc:title></dc:title>
      </cc:Work>
    </rdf:RDF>
  </metadata>
  <g
     inkscape:label="Layer 1"
     inkscape:groupmode="layer"
     id="layer1"
     transform="translate(283.10502,-116.23671)">
    

<g
       aria-label="N"
       transform="scale(0.76872112,1.3008619)"
       style="font-style:normal;font-variant:normal;font-weight:normal;font-stretch:normal;font-size:65.83602142px;line-height:1.25;font-family:'Open Sans';-inkscape-font-specification:'Open Sans, Normal';font-variant-ligatures:normal;font-variant-caps:normal;font-variant-numeric:normal;font-feature-settings:normal;text-align:start;letter-spacing:0px;word-spacing:0px;writing-mode:lr-tb;text-anchor:start;fill:#000000;fill-opacity:1;stroke:none;stroke-width:1.76346505"
       id="text834">
      <path
         d="m -274.14697,282.04716 12.978,-3.7198 v -95.97107 l -12.39936,-1.81857 v -15.29255 h 42.07517 l 49.76278,86.63021 7.27429,19.50833 v -88.69677 l -14.87924,-2.31455 v -15.12722 h 44.96836 v 15.12722 l -11.32475,1.81857 V 293.6199 h -32.40367 l -45.05102,-75.80143 -9.0102,-22.31886 q 0,20.74827 0,41.41387 0.0827,20.58295 0.0827,41.08323 l 16.78047,4.05045 v 11.57274 h -48.85349 z"
         style="font-style:normal;font-variant:normal;font-weight:900;font-stretch:normal;font-size:169.29263306px;font-family:Merriweather;-inkscape-font-specification:'Merriweather Heavy';fill:#000000;fill-opacity:1;stroke-width:1.76346505"
         id="path837" />
    </g>



<g
       aria-label="N"
       transform="scale(0.76193595,1.3124463)"
       style="font-style:normal;font-variant:normal;font-weight:normal;font-stretch:normal;font-size:65.26927948px;line-height:1.25;font-family:'Open Sans';-inkscape-font-specification:'Open Sans, Normal';font-variant-ligatures:normal;font-variant-caps:normal;font-variant-numeric:normal;font-feature-settings:normal;text-align:start;letter-spacing:0px;word-spacing:0px;writing-mode:lr-tb;text-anchor:start;fill:#000000;fill-opacity:1;stroke:none;stroke-width:1.74828458"
       id="text838">
      <path
         d="m -118.11257,279.52453 12.86628,-3.68778 v -95.14491 l -12.29262,-1.80292 v -15.16091 h 41.712972 l 49.334399,85.88447 7.211672,19.3404 v -87.93324 l -14.751149,-2.29462 v -14.99701 h 44.581251 v 14.99701 l -11.22726346,1.80291 V 290.99765 H -32.801753 l -44.663202,-75.14891 -8.93264,-22.12672 q 0,20.56965 0,41.05736 0.08195,20.40576 0.08195,40.72956 l 16.636018,4.01559 v 11.47312 h -48.432944 z"
         style="font-style:normal;font-variant:normal;font-weight:900;font-stretch:normal;font-size:167.83529663px;font-family:Merriweather;-inkscape-font-specification:'Merriweather Heavy';fill:#000000;fill-opacity:1;stroke-width:1.74828458"
         id="path834" />
    </g>




    <path
       style="fill:#000000;fill-opacity:1;fill-rule:evenodd;stroke-width:1.06112659"
       d="m -99.535018,126.23671 a 173.57001,173.57001 0 0 0 -173.570002,173.56998 173.57001,173.57001 0 0 0 173.570002,173.56999 173.57001,173.57001 0 0 0 173.57,-173.56999 173.57001,173.57001 0 0 0 -173.57,-173.56998 z m 0,10.84808 A 162.72188,162.72188 0 0 1 63.186852,299.80669 162.72188,162.72188 0 0 1 -99.535018,462.52856 162.72188,162.72188 0 0 1 -262.25689,299.80669 162.72188,162.72188 0 0 1 -99.535018,137.08479 Z"
       id="path12"
       inkscape:connector-curvature="0" />
  </g>
</svg>
